<svg xmlns="http://www.w3.org/2000/svg" xmlns:svg="http://www.w3.org/2000/svg" id="svg2" width="580" height="580" x="0" y="0" enable-background="new 0 0 580 580" version="1.1" viewBox="0 0 580 580" xml:space="preserve"><metadata id="metadata64"/><path style="fill:#fff;fill-opacity:1;stroke:#323232;stroke-width:5;stroke-miterlimit:4;stroke-opacity:1;stroke-dasharray:none" id="rect3853" d="m 44.589357,31.038183 c 145.664003,0 245.542853,0 391.206853,0 l 0,291.328007 c -145.664,0 -245.54285,0 -391.206853,0 z"/><g id="layer3" display="none" transform="matrix(48.14969,0,0,48.14969,-1210.2219,-51.870914)"><rect id="rect4134" width="10" height="10" x="1" y="1" fill="none" stroke="#757575" stroke-width=".1" display="inline"/><rect id="rect4136" width="8" height="8" x="2" y="2" fill="none" stroke="#757575" stroke-width=".1" display="inline"/></g><g id="g9828" display="none" transform="matrix(48.14969,0,0,48.14969,-1870.5198,102.97115)"><rect id="rect9830" width="10" height="10" x="1" y="1" fill="none" stroke="#757575" stroke-width=".1" display="inline"/><rect id="rect9832" width="8" height="8" x="2" y="2" fill="none" stroke="#757575" stroke-width=".1" display="inline"/></g><g id="g14695" display="none" transform="matrix(48.14969,0,0,48.14969,-1210.2219,-182.06834)"><rect id="rect14697" width="10" height="10" x="1" y="1" fill="none" stroke="#757575" stroke-width=".1" display="inline"/><rect id="rect14699" width="8" height="8" x="2" y="2" fill="none" stroke="#757575" stroke-width=".1" display="inline"/></g><path style="font-size:medium;font-style:normal;font-variant:normal;font-weight:400;font-stretch:normal;text-indent:0;text-align:start;text-decoration:none;line-height:normal;letter-spacing:normal;word-spacing:normal;text-transform:none;direction:ltr;block-progression:tb;writing-mode:lr-tb;text-anchor:start;baseline-shift:baseline;color:#000;fill:#323232;fill-opacity:1;fill-rule:nonzero;stroke:none;stroke-width:40;marker:none;visibility:visible;display:inline;overflow:visible;enable-background:accumulate;font-family:Sans;-inkscape-font-specification:Sans" id="path5469" d="m 2.625,28.46875 0,537.375 20,7.50781 20,-7.50781 0,-537.375 -20,-7.247845 z"/><path style="fill:none;stroke:#969696;stroke-width:10;stroke-linecap:butt;stroke-miterlimit:4;stroke-opacity:1;stroke-dasharray:none" id="path5921" d="m 8.1804563,28.870923 0,535.972827"/><rect style="fill:#000061;fill-opacity:1;stroke:none" id="rect4540" width="76.368" height="252.897" x="9.782" y="162.586" transform="matrix(0.70710678,-0.70710678,0.70710678,0.70710678,0,0)"/><rect style="fill:#000061;fill-opacity:1;stroke:none" id="rect4540-1" width="76.368" height="252.897" x="250.488" y="-174.413" transform="matrix(0.70710678,0.70710678,-0.70710678,0.70710678,0,0)"/></svg>